<svg xmlns="http://www.w3.org/2000/svg" viewBox="0 0 160 160" role="img" aria-label="Content creator team avatar">
  <rect width="160" height="160" rx="40" fill="#eef2ff"/>
  <circle cx="80" cy="78" r="48" fill="#ffd7e2"/>
  <path d="M42 76c4-29 22-45 48-43 25 2 39 20 36 50-16-11-31-16-46-16-13 0-26 3-38 9Z" fill="#4338ca"/>
  <path d="M52 85c0 24 13 40 31 40s32-16 32-40c0-15-12-26-31-26S52 70 52 85Z" fill="#ffe3cf"/>
  <circle cx="66" cy="88" r="4" fill="#1e1b4b"/>
  <circle cx="97" cy="88" r="4" fill="#1e1b4b"/>
  <path d="M72 105c8 6 17 6 25 0" fill="none" stroke="#1e1b4b" stroke-width="5" stroke-linecap="round"/>
  <path d="M39 116c9-13 23-20 42-20 20 0 34 7 43 20v20H39v-20Z" fill="#fb7185"/>
  <circle cx="121" cy="42" r="12" fill="#38bdf8"/>
  <path d="M116 42h10M121 37v10" stroke="#fff" stroke-width="4" stroke-linecap="round"/>
</svg>
