<svg xmlns="http://www.w3.org/2000/svg" viewBox="0 0 160 160" role="img" aria-label="Community developer avatar">
  <rect width="160" height="160" rx="40" fill="#f0fdfa"/>
  <circle cx="80" cy="78" r="48" fill="#c4b5fd"/>
  <path d="M41 78c5-29 22-45 47-44 24 1 39 18 38 45-14-9-29-14-45-14-15 0-28 4-40 13Z" fill="#7c3aed"/>
  <path d="M52 86c0 24 12 40 31 40 18 0 31-16 31-40 0-15-12-26-31-26S52 71 52 86Z" fill="#f5d6c6"/>
  <circle cx="66" cy="89" r="4" fill="#1e1b4b"/>
  <circle cx="97" cy="89" r="4" fill="#1e1b4b"/>
  <path d="M72 106c7 6 16 6 24 0" fill="none" stroke="#1e1b4b" stroke-width="5" stroke-linecap="round"/>
  <path d="M39 118c9-14 24-22 43-22s34 8 43 22v19H39v-19Z" fill="#14b8a6"/>
  <path d="M49 49 36 62l13 13M123 49l13 13-13 13" fill="none" stroke="#0f766e" stroke-width="6" stroke-linecap="round" stroke-linejoin="round"/>
  <path d="M92 38 68 82" fill="none" stroke="#0f766e" stroke-width="6" stroke-linecap="round"/>
</svg>
